<?xml version="1.0" encoding="utf-8"?>
<!-- Generator: Adobe Illustrator 18.1.1, SVG Export Plug-In . SVG Version: 6.00 Build 0)  -->
<svg version="1.1" id="Layer_1" xmlns="http://www.w3.org/2000/svg" xmlns:xlink="http://www.w3.org/1999/xlink" x="0px" y="0px"
	 viewBox="156 -156 512 512" enable-background="new 156 -156 512 512" xml:space="preserve">
<path fill="#F21C0A" d="M487.8,72L487.8,72c-1.2-0.5-2.4-1-3.5-1.7c-7-4-12.2-10.9-13.9-19.2L451.9-66.6l-0.2-5.8
	c0-7.1,4.1-10.2,10-13l0,0c0.7-0.3,1.4-0.6,2.1-0.9c7.2-3.4,12.1-7.8,12.1-16.3c0-20.1-6.5-21.4-18.2-21.4h-91.3
	c-11.7,0-18.2,1.2-18.2,21.4c0,8.5,4.9,12.9,12.1,16.3c0.7,0.3,1.4,0.5,2.1,0.9l0,0c5.9,2.9,10,6,10,13l-0.2,5.8L353.7,51.1
	c-1.7,8.3-6.9,15.2-13.9,19.2c-1.1,0.7-2.3,1.2-3.5,1.7l0,0c-19.7,10.2-36.2,30.8-36.2,54.7c0,15.9,3.5,21.3,15.2,21.3H396l12,176h8
	l12-176h80.8c11.7,0,15.2-4.7,15.2-21.3C524,102.8,507.5,82.2,487.8,72z"/>
</svg>
